Coordinates
version=1
nRows=8
nColumns=40
inDegrees=yes

Units are S.I. units (second, meters, Newtons, ...)
Angles are in degrees.

endheader
time	pelvis_tilt	pelvis_list	pelvis_rotation	pelvis_tx	pelvis_ty	pelvis_tz	hip_flexion_r	hip_adduction_r	hip_rotation_r	knee_angle_r	knee_angle_r_beta	ankle_angle_r	subtalar_angle_r	mtp_angle_r	hip_flexion_l	hip_adduction_l	hip_rotation_l	knee_angle_l	knee_angle_l_beta	ankle_angle_l	subtalar_angle_l	mtp_angle_l	lumbar_extension	lumbar_bending	lumbar_rotation	arm_flex_r	arm_add_r	arm_rot_r	elbow_flex_r	pro_sup_r	wrist_flex_r	wrist_dev_r	arm_flex_l	arm_add_l	arm_rot_l	elbow_flex_l	pro_sup_l	wrist_flex_l	wrist_dev_l
     11.55000000	     -5.24714019	     -5.17513361	      2.00260475	      0.79425581	      0.91891138	      0.47320209	      4.13390460	     -0.43333031	    -12.70801478	     28.50480321	     28.50480321	     16.08547185	     -4.52638379	     -8.00671288	     28.76607141	     -7.05567189	     -2.10097754	     26.32251528	     26.32251528	      6.59193974	    -12.29070795	      2.74223675	     -8.46052603	      5.21285414	      3.28792050	     27.99759635	    -17.24390078	      4.03559039	     95.11042283	     44.18468125	      0.00000000	      0.00000000	     -4.98935103	     -9.37108506	     -7.91118436	     29.37936738	     45.94782574	      0.00000000	      0.00000000
     11.56285714	     -5.19350090	     -4.99779243	      1.85214404	      0.79460563	      0.91978741	      0.47073254	      5.41310038	     -1.16046049	    -12.26634765	     31.55566917	     31.55566917	     13.95810354	     -6.53332963	    -11.74987218	     28.11530832	     -6.81445937	     -2.41343325	     26.27950803	     26.27950803	      7.08791215	    -12.24403988	      2.32620329	     -8.43509399	      4.88579193	      3.14579156	     26.92463686	    -17.06813046	      4.12773583	     94.52015999	     44.28585887	      0.00000000	      0.00000000	     -4.55430468	     -9.55544656	     -7.71931215	     30.12689767	     45.93930264	      0.00000000	      0.00000000
     11.57571429	     -5.12605760	     -4.79896474	      1.70700169	      0.79485716	      0.92060402	      0.46828890	      6.94022038	     -1.94454453	    -11.84775075	     35.12589772	     35.12589772	     12.63841021	     -7.99804011	    -12.38481616	     27.42301061	     -6.53364141	     -2.70778644	     26.17128127	     26.17128127	      7.58790329	    -12.18922616	      2.06029306	     -8.40459445	      4.57301142	      2.98239718	     25.72706489	    -17.05182757	      4.51666259	     93.96610333	     44.29703731	      0.00000000	      0.00000000	     -3.93191196	     -9.67633454	     -7.69313265	     30.45920894	     45.94721224	      0.00000000	      0.00000000
     11.58857143	     -4.91282943	     -4.57427206	      1.59905327	      0.79505913	      0.92146073	      0.46588264	      8.41160924	     -2.75215906	    -11.46742426	     38.79596148	     38.79596148	     11.01516587	     -9.53280082	    -12.89279678	     26.63522384	     -6.21382188	     -2.94191787	     26.16737114	     26.16737114	      8.09102473	    -12.19667480	      1.78233219	     -8.58307962	      4.22359904	      2.75393480	     24.49097260	    -16.90748669	      4.87189022	     93.40209384	     44.30487131	      0.00000000	      0.00000000	     -3.19196455	     -9.83261206	     -7.67386042	     30.87136978	     45.95708898	      0.00000000	      0.00000000
     11.60142857	     -4.89827489	     -4.46247084	      1.47024587	      0.79507742	      0.92195963	      0.46361978	     10.10354397	     -3.24712914	    -10.77643993	     42.10764313	     42.10764313	      7.37968102	    -13.10387019	    -17.23190243	     26.01710973	     -5.96482599	     -3.01871343	     25.99161279	     25.99161279	      8.20700376	    -12.51795574	      1.03071186	     -8.48216563	      4.04999822	      2.56260761	     23.12471186	    -16.79085186	      4.91774772	     92.45184505	     44.39356955	      0.00000000	      0.00000000	     -2.89374023	    -10.10847219	     -7.09910694	     32.17584158	     45.89316778	      0.00000000	      0.00000000
     11.61428571	     -4.75067468	     -4.23762345	      1.36437174	      0.79508928	      0.92248284	      0.46128179	     11.85582880	     -4.03616515	    -10.45715422	     45.91010644	     45.91010644	      5.31348181	    -14.65343590	    -17.00808044	     25.31140399	     -5.61191464	     -3.17993675	     25.95007692	     25.95007692	      8.64491275	    -12.61935140	      0.83783990	     -8.57285718	      3.77179964	      2.29902798	     21.68094033	    -16.69752894	      5.16991303	     91.73229174	     44.40980111	      0.00000000	      0.00000000	     -2.14353670	    -10.31583857	     -7.05625877	     32.61394843	     45.90118831	      0.00000000	      0.00000000
     11.62714286	     -4.65564036	     -4.06267089	      1.25670943	      0.79492539	      0.92288175	      0.45890246	     13.71533887	     -4.70187152	    -10.07075028	     49.59106078	     49.59106078	      2.99901987	    -16.42787464	    -16.30742760	     24.68920249	     -5.26588062	     -3.17250838	     25.91113837	     25.91113837	      9.01599930	    -12.88773164	      0.67722629	     -8.58982497	      3.62093889	      2.10596662	     20.10482508	    -16.63662265	      5.19112932	     90.75127884	     44.44268846	      0.00000000	      0.00000000	     -1.37806720	    -10.46883673	     -6.95695757	     33.25818182	     45.90234266	      0.00000000	      0.00000000
     11.64000000	     -4.44821319	     -3.82666120	      1.20262421	      0.79477826	      0.92327983	      0.45650744	     15.42237736	     -5.50684201	     -9.94314305	     53.11036156	     53.11036156	      0.80988374	    -17.74945623	    -15.25806336	     24.00024604	     -4.86176107	     -3.23720414	     25.96338659	     25.96338659	      9.42499499	    -13.15585855	      0.50181722	     -8.75596841	      3.38837166	      1.82188647	     18.46761621	    -16.45326762	      5.21088708	     89.75971410	     44.47295193	      0.00000000	      0.00000000	     -0.52204957	    -10.66596248	     -6.86561270	     33.91178448	     45.90551595	      0.00000000	      0.00000000
